<svg width="57" height="56" viewBox="0 0 57 56" fill="none" xmlns="http://www.w3.org/2000/svg">
<path d="M46.7614 30.282C44.9671 30.2913 43.4131 30.7218 42.1111 31.3646C41.6351 30.4138 41.1521 29.5773 41.0716 28.9555C40.9771 28.2298 40.8674 27.7958 40.9818 26.9313C41.0961 26.0668 41.5966 24.8418 41.5896 24.7496C41.5826 24.6575 41.4776 24.2176 40.4428 24.2095C39.4079 24.2025 38.5224 24.409 38.4186 24.682C38.3148 24.955 38.1153 25.5698 37.9916 26.2115C37.8108 27.1495 35.9254 30.4966 34.8556 32.2466C34.5056 31.563 34.2081 30.961 34.1463 30.485C34.0518 29.7593 33.9421 29.3253 34.0564 28.4608C34.1708 27.5963 34.6713 26.3713 34.6643 26.2791C34.6573 26.187 34.5523 25.7471 33.5174 25.739C32.4826 25.732 31.5971 25.9385 31.4933 26.2115C31.3895 26.4845 31.2774 27.1226 31.0663 27.741C30.8539 28.3581 28.3491 33.9406 27.6923 35.3885C27.3574 36.1258 27.0669 36.7185 26.8616 37.1221L26.8604 37.1198C26.8604 37.1198 26.8476 37.1466 26.8266 37.1921C26.6504 37.5363 26.5466 37.7265 26.5466 37.7265C26.5466 37.7265 26.5478 37.7288 26.5501 37.7335C26.4101 37.9866 26.2608 38.2211 26.1873 38.2211C26.136 38.2211 26.0321 37.548 26.2094 36.624C26.5828 34.6873 27.4776 31.668 27.4694 31.563C27.4648 31.5093 27.6363 30.9831 26.8849 30.7078C26.1546 30.4406 25.8944 30.8863 25.8279 30.8875C25.7638 30.8886 25.7159 31.045 25.7159 31.045C25.7159 31.045 26.5291 27.6488 24.1643 27.6488C22.6849 27.6488 20.6363 29.267 19.6271 30.7335C18.9901 31.0811 17.6263 31.8255 16.1808 32.62C15.6254 32.9256 15.0584 33.2371 14.5206 33.5335C14.4845 33.4926 14.4471 33.453 14.4098 33.4121C11.5409 30.352 6.23962 28.1878 6.46362 24.073C6.54528 22.5773 7.06562 18.6386 16.6521 13.8623C24.5049 9.94931 30.7921 11.0261 31.8783 13.412C33.43 16.8221 28.5183 23.1583 20.3633 24.073C17.2564 24.4218 15.6196 23.2166 15.2124 22.7686C14.7843 22.2961 14.7201 22.2751 14.5603 22.3638C14.3001 22.5085 14.4646 22.925 14.5603 23.1735C14.8041 23.807 15.8028 24.9305 17.5061 25.4905C19.0053 25.9828 22.6534 26.2523 27.0646 24.5455C32.0066 22.6345 35.8648 17.3168 34.7308 12.873C33.5781 8.35331 26.0834 6.86698 18.9901 9.38698C14.7633 10.8873 10.1934 13.2416 6.90695 16.3146C2.99978 19.9686 2.37678 23.1501 2.63345 24.479C3.54578 29.2016 10.0546 32.277 12.6609 34.5555C12.5326 34.6266 12.4113 34.6931 12.3016 34.7538C10.9949 35.4001 6.03312 37.9971 4.79178 40.74C3.38362 43.8515 5.01578 46.0845 6.09612 46.3855C9.44328 47.3165 12.8779 45.6411 14.7248 42.8878C16.5704 40.1356 16.3453 36.5505 15.4983 34.9148C15.4878 34.895 15.4761 34.8751 15.4656 34.8541C15.8028 34.6546 16.1469 34.4516 16.4876 34.251C17.1526 33.8601 17.8059 33.4961 18.3718 33.1881C18.0544 34.0561 17.8223 35.098 17.7021 36.6018C17.5598 38.3681 18.2843 40.6513 19.2316 41.5496C19.6493 41.9451 20.1509 41.9545 20.4683 41.9545C21.5708 41.9545 22.0736 41.0375 22.6278 39.9525C23.3068 38.6225 23.91 37.0731 23.91 37.0731C23.91 37.0731 23.1539 41.2568 25.2143 41.2568C25.9656 41.2568 26.7204 40.2826 27.0576 39.7868C27.0588 39.7926 27.0588 39.795 27.0588 39.795C27.0588 39.795 27.0786 39.7623 27.1171 39.6981C27.1953 39.5791 27.2396 39.5033 27.2396 39.5033C27.2396 39.5033 27.2408 39.4951 27.2431 39.4811C27.5453 38.9573 28.2149 37.7626 29.2183 35.7921C30.5156 33.2465 31.7593 30.0568 31.7593 30.0568C31.7593 30.0568 31.8748 30.8361 32.2539 32.1265C32.4768 32.8848 32.9504 33.7236 33.3249 34.5286C33.0239 34.9463 32.8396 35.1855 32.8396 35.1855C32.8396 35.1855 32.8408 35.1901 32.8443 35.1983C32.6039 35.518 32.3344 35.8621 32.0521 36.1981C31.0278 37.4173 29.8086 38.8103 29.6453 39.2116C29.4528 39.6853 29.4983 40.033 29.8704 40.3141C30.1423 40.5183 30.6253 40.551 31.1304 40.5171C32.0509 40.4553 32.6973 40.2266 33.0169 40.0878C33.5151 39.9116 34.0949 39.6351 34.6386 39.235C35.6431 38.4965 36.2486 37.4406 36.1903 36.0406C36.1576 35.2695 35.9126 34.5053 35.6011 33.7843C35.6921 33.6536 35.7831 33.5206 35.8753 33.3876C37.4584 31.073 38.6869 28.5296 38.6869 28.5296C38.6869 28.5296 38.8024 29.309 39.1816 30.5993C39.3729 31.2515 39.7521 31.9643 40.0928 32.662C38.6041 33.8718 37.6813 35.2776 37.3605 36.1993C36.7678 37.905 37.2321 38.6773 38.1024 38.8535C38.4968 38.9328 39.0544 38.752 39.4733 38.5746C39.9948 38.402 40.6213 38.1138 41.2069 37.6833C42.2114 36.9448 43.1774 35.9111 43.1191 34.5123C43.0923 33.8753 42.9196 33.243 42.6851 32.6363C43.9474 32.1101 45.5808 31.8185 47.6621 32.0611C52.1269 32.5826 53.0019 35.3698 52.8351 36.5365C52.6671 37.7031 51.7314 38.3448 51.4176 38.5385C51.1049 38.7321 51.0093 38.7998 51.0349 38.9433C51.0734 39.1521 51.2181 39.1451 51.4853 39.0996C51.8528 39.0378 53.8291 38.1511 53.9143 35.9975C54.0204 33.2605 51.4013 30.2575 46.7614 30.282ZM12.3483 41.8833C10.8689 43.4968 8.80395 44.1058 7.91728 43.5925C6.96062 43.0383 7.33978 40.663 9.15395 38.9503C10.2599 37.9073 11.688 36.946 12.6353 36.3545C12.8511 36.225 13.1673 36.0348 13.5523 35.8038C13.6165 35.7676 13.6526 35.7478 13.6526 35.7478L13.6515 35.7455C13.7261 35.7011 13.8019 35.6556 13.8801 35.6078C14.5416 38.045 13.9011 40.1905 12.3483 41.8833ZM23.1224 34.5601C22.6079 35.8155 21.5299 39.0285 20.8731 38.8558C20.3096 38.7076 19.9666 36.2658 20.7611 33.8625C21.1601 32.6526 22.0141 31.2071 22.5158 30.646C23.3231 29.743 24.2121 29.4478 24.4279 29.8141C24.7021 30.2808 23.4456 33.7726 23.1224 34.5601ZM32.0229 38.8068C31.8048 38.9211 31.6041 38.9923 31.5119 38.9375C31.4431 38.8966 31.6018 38.7461 31.6018 38.7461C31.6018 38.7461 32.7148 37.548 33.1534 37.0031C33.4089 36.6858 33.7041 36.309 34.0261 35.889C34.0285 35.931 34.0296 35.973 34.0296 36.0138C34.0273 37.4488 32.6413 38.4171 32.0229 38.8068ZM38.8794 37.2435C38.7161 37.128 38.7441 36.7535 39.2796 35.5856C39.4896 35.1271 39.9703 34.356 40.8033 33.6186C40.9001 33.922 40.9584 34.2125 40.9573 34.4831C40.9468 36.2891 39.6588 36.9635 38.8794 37.2435Z" fill="black"/>
</svg>
