<svg width="57" height="56" viewBox="0 0 57 56" fill="none" xmlns="http://www.w3.org/2000/svg">
<path fill-rule="evenodd" clip-rule="evenodd" d="M10.1048 48.6535L8.58583 8.20402C8.538 6.86819 9.56467 5.73769 10.8982 5.65602L37.8575 3.97019L39.9167 4.66669L42.5942 3.67385L45.2962 3.50469C46.653 3.41835 47.8232 4.44852 47.9107 5.80535C47.9142 5.85785 47.9153 5.91152 47.9153 5.96519V50.0384C47.9142 51.3999 46.8093 52.5024 45.4478 52.5012C45.4117 52.5012 45.3755 52.5 45.3405 52.4989L12.4568 51.0219C11.1758 50.9647 10.1538 49.9357 10.1048 48.6535Z" fill="black"/>
<path fill-rule="evenodd" clip-rule="evenodd" d="M42.5918 3.67383L37.8587 3.96783L37.6288 9.52233C37.6207 9.72533 37.7782 9.89566 37.9811 9.90499C38.0663 9.90849 38.1492 9.88283 38.2168 9.83149L40.3728 8.19466L42.1952 9.63083C42.3538 9.75683 42.586 9.72999 42.7108 9.57133C42.7645 9.50249 42.7925 9.41733 42.7902 9.32983L42.5941 3.67499L42.5918 3.67383ZM38.9075 22.2693C38.043 22.9425 31.5843 23.401 31.5843 22.4432C31.722 18.7857 30.0851 18.6258 29.174 18.6258C28.3118 18.6258 26.8558 18.886 26.8558 20.846C26.8558 22.8422 28.9826 23.9692 31.4793 25.2922C35.0248 27.1717 39.3193 29.4478 39.3193 35.1703C39.3193 40.6583 34.8603 43.687 29.1763 43.687C23.3092 43.687 18.1805 41.3128 18.7592 33.0832C18.9867 32.1183 26.4475 32.3482 26.4475 33.0832C26.3542 36.4793 27.1288 37.478 29.0842 37.478C30.5857 37.478 31.267 36.6497 31.267 35.2578C31.267 33.1485 29.0527 31.9037 26.5023 30.4733C23.0502 28.5355 18.9878 26.2547 18.9878 21.0187C18.9878 15.7955 22.58 12.3118 28.9931 12.3118C35.4063 12.3118 38.9075 15.743 38.9075 22.2693Z" fill="white"/>
</svg>
