<svg width="57" height="34" viewBox="0 0 57 34" fill="none" xmlns="http://www.w3.org/2000/svg">
<path d="M56.75 32.3912C54.713 32.9092 53.453 32.414 52.3225 30.7165L44.283 19.5935L43.121 18.0535L33.7323 30.7532C32.6595 32.281 31.5343 32.946 29.5323 32.4052L41.5547 16.2667L30.3617 1.68923C32.2867 1.31473 33.6167 1.50548 34.798 3.22923L43.1367 14.4905L51.5368 3.29049C52.613 1.76274 53.7697 1.18173 55.7017 1.74523L51.3617 7.49923L45.4818 15.1555C44.7817 16.0305 44.878 16.629 45.522 17.4742L56.75 32.3912ZM0.764 15.9972L1.7475 11.1602C4.425 1.58774 15.3975 -2.39002 22.9645 3.52498C27.3868 7.00398 28.4858 11.925 28.267 17.4375H3.34C2.9655 27.36 10.1073 33.3485 19.2125 30.293C22.4062 29.2202 24.2875 26.7195 25.229 23.5905C25.7067 22.0225 26.4978 21.7775 27.9713 22.2255C27.2188 26.1385 25.5212 29.4075 21.9338 31.4532C16.5735 34.5157 8.9225 33.5252 4.8975 29.2692C2.5 26.8 1.5095 23.671 1.065 20.325C0.995 19.772 0.855 19.2452 0.75 18.715C0.759333 17.8097 0.764 16.9043 0.764 15.999V15.9972ZM3.3855 15.3322H25.9115C25.7645 8.15723 21.2967 3.06123 15.191 3.01748C8.4885 2.96498 3.676 7.94023 3.3855 15.3322Z" fill="black"/>
</svg>
