<svg width="57" height="56" viewBox="0 0 57 56" fill="none" xmlns="http://www.w3.org/2000/svg">
<path d="M56.7395 27.3831C56.5873 18.0206 51.367 8.90486 43.2908 4.10461C36.9278 0.141739 28.89 -0.924886 21.6503 0.903864C10.7539 3.64699 2.06689 13.5152 0.962643 24.7625C-0.409357 35.385 4.96314 46.4327 14.1445 51.8805C23.136 57.519 35.3659 57.2906 44.157 51.3555C52.0819 46.2122 56.9968 36.8305 56.7308 27.391L56.7395 27.3831ZM30.2988 51.8437C17.5736 53.1011 5.26764 42.3194 4.92377 29.5557C3.96127 19.1931 10.7906 8.94424 20.5443 5.51511C34.2223 0.0288637 51.024 10.1631 52.4336 24.8325C54.6439 38.0135 43.6714 51.4325 30.2988 51.8437ZM21.925 26.5825L40.3263 11.5325L30.3828 26.6201C27.5635 26.6201 24.7443 26.621 21.925 26.5825ZM27.0989 29.365L35.5566 29.4035L17.1554 44.4911L27.0989 29.365Z" fill="black"/>
</svg>
